<?xml version="1.0" standalone="no"?>
<!DOCTYPE svg PUBLIC "-//W3C//DTD SVG 20010904//EN"
 "http://www.w3.org/TR/2001/REC-SVG-20010904/DTD/svg10.dtd">
<svg version="1.0" xmlns="http://www.w3.org/2000/svg"
 width="500.000000pt" height="500.000000pt" viewBox="0 0 500.000000 500.000000"
 preserveAspectRatio="xMidYMid meet">
<metadata>
Created by potrace 1.14, written by Peter Selinger 2001-2017
</metadata>
<g transform="translate(0.000000,500.000000) scale(0.100000,-0.100000)"
fill="#000000" stroke="none">
<path d="M2475 4888 c-16 -4 -102 -65 -190 -134 -175 -137 -182 -142 -305
-238 -47 -36 -110 -86 -140 -110 -61 -48 -650 -507 -1065 -830 -148 -115 -272
-212 -275 -216 -3 -3 -23 -19 -45 -35 -22 -16 -47 -35 -55 -42 -8 -7 -73 -58
-145 -114 -72 -56 -135 -111 -142 -123 -36 -63 16 -146 91 -146 25 0 75 31
149 92 l47 40 0 -1326 c0 -931 3 -1332 11 -1349 6 -13 23 -31 39 -40 26 -16
182 -17 2050 -17 1868 0 2024 1 2050 17 16 9 33 27 39 40 8 17 11 418 11 1351
0 730 4 1322 8 1317 16 -22 147 -116 169 -121 69 -18 137 50 119 120 -7 30
-32 54 -151 147 -49 38 -97 75 -105 82 -8 7 -133 104 -277 216 l-263 204 0
363 0 364 -300 0 -300 0 0 -125 c0 -69 -2 -125 -5 -125 -5 0 -103 74 -171 130
-18 14 -45 35 -60 46 -16 12 -114 89 -219 171 -104 81 -202 157 -216 168 -15
11 -85 65 -155 121 -71 55 -138 103 -149 106 -11 2 -33 1 -50 -4z m122 -295
c47 -38 118 -93 157 -122 39 -30 76 -60 83 -65 6 -6 26 -22 44 -36 19 -14 56
-43 84 -65 62 -50 489 -382 526 -410 15 -11 116 -90 224 -175 108 -85 209
-164 224 -175 23 -17 169 -130 221 -172 8 -6 51 -40 95 -75 44 -35 95 -74 113
-87 l32 -22 0 -1345 0 -1344 -600 0 -600 0 0 950 0 950 -700 0 -700 0 0 -950
0 -950 -600 0 -600 0 0 1343 0 1343 77 59 c42 33 100 78 128 100 141 108 411
319 415 324 3 3 32 27 65 52 107 81 930 723 935 729 3 3 21 17 40 30 19 14 44
32 55 42 86 72 172 137 183 138 7 0 52 -30 99 -67z m1303 -579 c0 -201 2 -193
-46 -149 -6 6 -43 35 -82 64 l-72 55 0 108 0 108 100 0 100 0 0 -186z m-900
-2664 l0 -850 -500 0 -500 0 0 850 0 850 500 0 500 0 0 -850z"/>
</g>
</svg>
