<?xml version="1.0" standalone="no"?>
<!DOCTYPE svg PUBLIC "-//W3C//DTD SVG 20010904//EN"
 "http://www.w3.org/TR/2001/REC-SVG-20010904/DTD/svg10.dtd">
<svg version="1.0" xmlns="http://www.w3.org/2000/svg"
 width="2000.000000pt" height="2000.000000pt" viewBox="0 0 2000.000000 2000.000000"
 preserveAspectRatio="xMidYMid meet">
<metadata>
Created by potrace 1.11, written by Peter Selinger 2001-2013
</metadata>
<g transform="translate(0.000000,2000.000000) scale(0.100000,-0.100000)"
fill="#000000" stroke="none">
<path d="M0 10000 l0 -10000 10000 0 10000 0 0 10000 0 10000 -10000 0 -10000
0 0 -10000z m7973 4763 c3 -10 8 -36 12 -58 4 -22 18 -67 31 -99 13 -33 23
-60 21 -61 -1 -1 -30 -17 -65 -35 -167 -88 -314 -286 -353 -476 l-13 -62 -75
-1 c-151 -1 -274 -54 -387 -166 -116 -114 -168 -241 -167 -405 l0 -96 -48 -33
c-117 -80 -202 -259 -186 -392 l6 -47 -67 29 c-68 28 -166 49 -233 49 -31 0
-44 9 -95 63 -76 79 -119 148 -152 239 -22 64 -26 89 -26 208 -1 150 8 191 71
312 93 179 294 316 497 336 l70 7 13 78 c40 236 242 407 481 407 50 0 92 -8
187 -35 17 -5 27 4 53 44 63 96 165 168 280 195 84 21 140 20 145 -1z m3272
-769 c113 -28 202 -81 296 -174 137 -135 199 -283 199 -471 0 -117 -25 -222
-76 -319 -39 -74 -130 -181 -188 -221 -20 -13 -36 -27 -36 -31 0 -4 13 -27 30
-50 79 -114 74 -277 -12 -404 l-21 -31 -23 26 c-18 20 -24 23 -27 11 -3 -8
-175 -1797 -382 -3975 -207 -2178 -379 -3981 -382 -4007 l-6 -48 -285 0 -285
0 7 1228 c3 675 11 2498 17 4052 l11 2825 -34 28 c-50 43 -168 96 -250 113
-81 18 -256 14 -268 -5 -3 -6 -12 -1709 -18 -3784 -7 -2074 -15 -3926 -18
-4114 l-6 -343 -299 0 c-232 0 -299 3 -299 13 -1 53 -779 8150 -784 8154 -4 4
-27 -8 -51 -25 -25 -18 -47 -32 -48 -32 -1 0 -2 44 -2 98 0 90 -3 103 -32 162
-33 66 -62 102 -124 154 l-34 29 67 62 c161 149 390 200 605 134 65 -20 67
-20 80 -2 88 124 166 192 285 248 104 49 176 65 293 65 115 0 197 -17 292 -60
36 -17 67 -29 68 -28 0 2 18 37 38 79 47 96 126 173 221 215 36 15 66 33 66
40 0 34 67 138 120 187 71 66 142 102 234 118 119 20 258 -16 346 -89 l35 -29
55 48 c179 155 397 209 625 153z m-5145 -1462 c50 -13 66 -22 68 -37 7 -61
612 -6416 612 -6437 0 -24 -4 -25 -68 -31 -37 -4 -89 -14 -115 -23 -27 -9 -51
-14 -54 -10 -3 3 -125 1199 -270 2658 -145 1459 -281 2820 -302 3023 -36 335
-75 722 -85 833 l-4 42 77 0 c42 -1 105 -9 141 -18z m1235 -6 c94 -25 181 -73
247 -135 l60 -56 378 -3970 c209 -2183 382 -3991 385 -4017 l6 -48 -491 0
c-440 0 -490 2 -490 16 0 9 -18 208 -41 442 l-41 427 18 75 c21 88 23 223 5
300 -7 30 -28 87 -46 125 l-32 70 -313 3280 -312 3280 72 67 c76 72 172 126
270 153 68 19 238 14 325 -9z m5044 -6 c135 -48 302 -188 300 -254 0 -17 -141
-1500 -313 -3296 -172 -1796 -312 -3266 -311 -3268 1 -1 40 35 86 81 57 55
108 95 156 120 l73 38 -19 37 c-55 107 -70 279 -36 397 41 145 141 275 263
345 34 19 61 40 62 45 0 46 542 5706 548 5724 10 33 67 52 180 58 50 3 92 3
92 0 0 -3 -27 -277 -60 -609 -130 -1313 -500 -5093 -500 -5112 0 -19 9 -23 76
-34 171 -27 341 -153 416 -310 l35 -73 149 -3 c97 -2 165 -8 194 -18 39 -12
52 -13 95 0 28 7 111 16 185 19 110 4 153 1 230 -15 292 -60 528 -245 660
-516 70 -142 93 -248 93 -411 0 -146 -15 -230 -63 -355 -74 -191 -242 -380
-431 -484 -133 -73 -361 -126 -489 -114 l-50 5 -38 -49 c-105 -140 -283 -218
-467 -205 -191 14 -352 120 -441 290 -20 40 -38 73 -39 75 -2 2 -20 -5 -42
-16 -59 -30 -137 -53 -221 -66 l-77 -12 -7 -64 c-4 -36 -10 -89 -14 -117 l-5
-53 -125 0 c-124 0 -124 0 -120 22 3 13 8 59 11 103 3 44 9 94 11 112 6 31 5
32 -78 71 -146 69 -252 166 -334 307 -16 27 -30 43 -31 35 -1 -8 -14 -136 -28
-285 -14 -148 -28 -291 -31 -317 l-6 -48 -410 0 -409 0 6 42 c7 55 775 8105
775 8129 0 12 17 24 57 39 94 35 123 39 253 36 98 -3 139 -8 189 -26z m-4562
-395 c-12 -39 -21 -44 -36 -18 -7 14 -3 21 17 34 15 10 28 18 29 18 0 1 -4
-15 -10 -34z m-868 -7802 c1 -22 -2 -23 -101 -23 l-103 0 63 35 c35 18 78 45
95 58 l32 25 7 -37 c4 -20 7 -46 7 -58z"/>
</g>
</svg>
